<svg width="809" height="206" viewBox="0 0 809 206" fill="none" xmlns="http://www.w3.org/2000/svg">
<path d="M251.735 147.2V143.826H275.291V147.2H265.414V175.234H261.611V147.2H251.735ZM301.026 175.234V143.826H319.982V147.2H304.83V157.812H319V161.186H304.83V171.86H320.227V175.234H301.026ZM371.977 153.641H368.173C367.948 152.547 367.555 151.586 366.992 150.758C366.44 149.93 365.766 149.234 364.968 148.672C364.181 148.099 363.307 147.67 362.346 147.384C361.385 147.097 360.383 146.954 359.34 146.954C357.438 146.954 355.715 147.435 354.171 148.396C352.638 149.357 351.416 150.773 350.506 152.644C349.606 154.515 349.157 156.81 349.157 159.53C349.157 162.25 349.606 164.545 350.506 166.416C351.416 168.287 352.638 169.703 354.171 170.664C355.715 171.625 357.438 172.105 359.34 172.105C360.383 172.105 361.385 171.962 362.346 171.676C363.307 171.39 364.181 170.965 364.968 170.403C365.766 169.831 366.44 169.13 366.992 168.302C367.555 167.464 367.948 166.503 368.173 165.419H371.977C371.69 167.024 371.169 168.461 370.412 169.728C369.656 170.996 368.715 172.075 367.591 172.964C366.466 173.844 365.203 174.513 363.802 174.973C362.412 175.433 360.924 175.663 359.34 175.663C356.661 175.663 354.279 175.009 352.193 173.7C350.107 172.392 348.466 170.531 347.27 168.118C346.074 165.705 345.476 162.842 345.476 159.53C345.476 156.217 346.074 153.355 347.27 150.942C348.466 148.529 350.107 146.668 352.193 145.359C354.279 144.051 356.661 143.396 359.34 143.396C360.924 143.396 362.412 143.626 363.802 144.086C365.203 144.547 366.466 145.221 367.591 146.111C368.715 146.99 369.656 148.064 370.412 149.331C371.169 150.589 371.69 152.025 371.977 153.641ZM397.988 175.234V143.826H401.792V157.812H418.539V143.826H422.342V175.234H418.539V161.186H401.792V175.234H397.988ZM474.728 143.826V175.234H471.047L453.932 150.574H453.625V175.234H449.822V143.826H453.503L470.679 168.548H470.986V143.826H474.728ZM528.705 159.53C528.705 162.842 528.107 165.705 526.91 168.118C525.714 170.531 524.073 172.392 521.988 173.7C519.902 175.009 517.52 175.663 514.841 175.663C512.162 175.663 509.78 175.009 507.694 173.7C505.609 172.392 503.968 170.531 502.772 168.118C501.575 165.705 500.977 162.842 500.977 159.53C500.977 156.217 501.575 153.355 502.772 150.942C503.968 148.529 505.609 146.668 507.694 145.359C509.78 144.051 512.162 143.396 514.841 143.396C517.52 143.396 519.902 144.051 521.988 145.359C524.073 146.668 525.714 148.529 526.91 150.942C528.107 153.355 528.705 156.217 528.705 159.53ZM525.024 159.53C525.024 156.81 524.569 154.515 523.659 152.644C522.76 150.773 521.538 149.357 519.994 148.396C518.46 147.435 516.743 146.954 514.841 146.954C512.939 146.954 511.217 147.435 509.673 148.396C508.139 149.357 506.917 150.773 506.007 152.644C505.108 154.515 504.658 156.81 504.658 159.53C504.658 162.25 505.108 164.545 506.007 166.416C506.917 168.287 508.139 169.703 509.673 170.664C511.217 171.625 512.939 172.105 514.841 172.105C516.743 172.105 518.46 171.625 519.994 170.664C521.538 169.703 522.76 168.287 523.659 166.416C524.569 164.545 525.024 162.25 525.024 159.53ZM554.966 175.234V143.826H558.769V171.86H573.369V175.234H554.966ZM624.401 159.53C624.401 162.842 623.803 165.705 622.607 168.118C621.411 170.531 619.77 172.392 617.684 173.7C615.599 175.009 613.216 175.663 610.538 175.663C607.859 175.663 605.477 175.009 603.391 173.7C601.305 172.392 599.664 170.531 598.468 168.118C597.272 165.705 596.674 162.842 596.674 159.53C596.674 156.217 597.272 153.355 598.468 150.942C599.664 148.529 601.305 146.668 603.391 145.359C605.477 144.051 607.859 143.396 610.538 143.396C613.216 143.396 615.599 144.051 617.684 145.359C619.77 146.668 621.411 148.529 622.607 150.942C623.803 153.355 624.401 156.217 624.401 159.53ZM620.721 159.53C620.721 156.81 620.266 154.515 619.356 152.644C618.456 150.773 617.234 149.357 615.691 148.396C614.157 147.435 612.439 146.954 610.538 146.954C608.636 146.954 606.913 147.435 605.369 148.396C603.836 149.357 602.614 150.773 601.704 152.644C600.804 154.515 600.354 156.81 600.354 159.53C600.354 162.25 600.804 164.545 601.704 166.416C602.614 168.287 603.836 169.703 605.369 170.664C606.913 171.625 608.636 172.105 610.538 172.105C612.439 172.105 614.157 171.625 615.691 170.664C617.234 169.703 618.456 168.287 619.356 166.416C620.266 164.545 620.721 162.25 620.721 159.53ZM672.133 153.641C671.795 152.608 671.351 151.683 670.799 150.865C670.257 150.037 669.607 149.331 668.851 148.749C668.105 148.166 667.256 147.721 666.305 147.414C665.354 147.108 664.311 146.954 663.177 146.954C661.316 146.954 659.624 147.435 658.1 148.396C656.577 149.357 655.365 150.773 654.466 152.644C653.566 154.515 653.116 156.81 653.116 159.53C653.116 162.25 653.571 164.545 654.481 166.416C655.391 168.287 656.623 169.703 658.177 170.664C659.731 171.625 661.479 172.105 663.422 172.105C665.221 172.105 666.806 171.722 668.176 170.955C669.556 170.178 670.63 169.084 671.397 167.673C672.174 166.252 672.562 164.581 672.562 162.658L673.728 162.904H664.281V159.53H676.243V162.904C676.243 165.491 675.691 167.74 674.587 169.652C673.493 171.564 671.979 173.046 670.047 174.099C668.125 175.142 665.917 175.663 663.422 175.663C660.641 175.663 658.197 175.009 656.091 173.7C653.995 172.392 652.359 170.531 651.184 168.118C650.018 165.705 649.435 162.842 649.435 159.53C649.435 157.045 649.768 154.812 650.432 152.828C651.107 150.834 652.058 149.137 653.285 147.736C654.512 146.336 655.963 145.262 657.64 144.516C659.317 143.77 661.162 143.396 663.177 143.396C664.833 143.396 666.377 143.647 667.808 144.148C669.25 144.639 670.533 145.339 671.657 146.249C672.792 147.149 673.738 148.227 674.495 149.485C675.251 150.732 675.773 152.117 676.059 153.641H672.133ZM706.426 143.826V175.234H702.623V143.826H706.426ZM733.918 175.234V143.826H752.873V147.2H737.721V157.812H751.891V161.186H737.721V171.86H753.118V175.234H733.918ZM796.77 151.678C796.586 150.124 795.84 148.917 794.531 148.059C793.223 147.2 791.617 146.77 789.716 146.77C788.325 146.77 787.109 146.995 786.066 147.445C785.033 147.895 784.225 148.513 783.643 149.301C783.07 150.088 782.784 150.983 782.784 151.985C782.784 152.823 782.983 153.544 783.382 154.147C783.791 154.74 784.312 155.236 784.946 155.635C785.58 156.023 786.245 156.345 786.94 156.601C787.635 156.846 788.274 157.045 788.857 157.199L792.047 158.058C792.865 158.272 793.775 158.569 794.777 158.947C795.789 159.325 796.755 159.842 797.675 160.496C798.605 161.14 799.372 161.968 799.976 162.981C800.579 163.993 800.88 165.235 800.88 166.707C800.88 168.404 800.436 169.938 799.546 171.308C798.667 172.678 797.379 173.767 795.681 174.575C793.994 175.382 791.945 175.786 789.532 175.786C787.282 175.786 785.335 175.423 783.689 174.697C782.053 173.971 780.765 172.959 779.824 171.661C778.894 170.362 778.367 168.854 778.244 167.137H782.17C782.273 168.323 782.671 169.304 783.367 170.081C784.072 170.848 784.961 171.42 786.035 171.799C787.119 172.167 788.284 172.351 789.532 172.351C790.983 172.351 792.287 172.116 793.442 171.645C794.598 171.165 795.513 170.5 796.188 169.652C796.862 168.793 797.2 167.791 797.2 166.646C797.2 165.603 796.908 164.754 796.326 164.1C795.743 163.446 794.976 162.914 794.025 162.505C793.074 162.096 792.047 161.738 790.943 161.432L787.078 160.327C784.624 159.622 782.682 158.615 781.25 157.306C779.819 155.997 779.103 154.285 779.103 152.169C779.103 150.41 779.579 148.876 780.529 147.568C781.49 146.249 782.779 145.226 784.394 144.501C786.02 143.764 787.834 143.396 789.838 143.396C791.863 143.396 793.662 143.759 795.237 144.485C796.811 145.201 798.059 146.182 798.979 147.43C799.909 148.677 800.4 150.093 800.451 151.678H796.77Z" fill="#007FFF"/>
<path d="M268.498 97L249.781 30.6809H262.702L274.651 79.4164H275.266L288.025 30.6809H299.779L312.57 79.4487H313.153L325.102 30.6809H338.023L319.306 97H307.454L294.177 50.4665H293.659L280.35 97H268.498ZM369.151 97V30.6809H412.284V40.7518H381.164V58.7564H410.05V68.8273H381.164V86.9291H412.543V97H369.151ZM447.338 97V30.6809H472.726C477.518 30.6809 481.501 31.4365 484.675 32.9476C487.87 34.4372 490.255 36.4773 491.831 39.0679C493.429 41.6585 494.228 44.5945 494.228 47.8759C494.228 50.5745 493.709 52.8844 492.673 54.8058C491.637 56.7055 490.245 58.2491 488.496 59.4364C486.747 60.6238 484.793 61.4765 482.635 61.9946V62.6423C484.988 62.7718 487.244 63.495 489.403 64.8119C491.583 66.1072 493.364 67.9422 494.746 70.3169C496.127 72.6916 496.818 75.5629 496.818 78.9306C496.818 82.3632 495.987 85.4503 494.325 88.192C492.662 90.9121 490.158 93.0601 486.812 94.6361C483.466 96.212 479.256 97 474.183 97H447.338ZM459.352 86.9615H472.272C476.633 86.9615 479.774 86.1303 481.696 84.468C483.638 82.7841 484.61 80.6253 484.61 77.9915C484.61 76.027 484.124 74.2568 483.153 72.6808C482.181 71.0833 480.8 69.8312 479.008 68.9245C477.216 67.9962 475.079 67.532 472.596 67.532H459.352V86.9615ZM459.352 58.8859H471.236C473.309 58.8859 475.176 58.5081 476.838 57.7526C478.5 56.9754 479.807 55.8852 480.756 54.4819C481.728 53.0571 482.214 51.3732 482.214 49.4303C482.214 46.8613 481.307 44.7456 479.494 43.0833C477.702 41.421 475.036 40.5899 471.495 40.5899H459.352V58.8859ZM530.067 97V30.6809H554.936C560.031 30.6809 564.306 31.566 567.76 33.3362C571.236 35.1065 573.859 37.5891 575.629 40.7842C577.421 43.9577 578.317 47.66 578.317 51.8913C578.317 56.1442 577.41 59.8358 575.596 62.9661C573.805 66.0748 571.16 68.4819 567.663 70.1874C564.165 71.8713 559.869 72.7132 554.775 72.7132H537.061V62.7394H553.155C556.135 62.7394 558.574 62.3293 560.474 61.5089C562.374 60.667 563.777 59.4472 564.684 57.8497C565.612 56.2306 566.076 54.2445 566.076 51.8913C566.076 49.5382 565.612 47.5305 564.684 45.8682C563.755 44.1843 562.341 42.9106 560.441 42.0471C558.542 41.162 556.091 40.7194 553.091 40.7194H542.081V97H530.067ZM564.327 66.9491L580.745 97H567.339L551.212 66.9491H564.327ZM624.186 30.6809V97H612.172V30.6809H624.186ZM716.759 53.0571H704.648C704.303 51.071 703.666 49.3115 702.738 47.7788C701.809 46.2244 700.654 44.9075 699.273 43.8281C697.891 42.7487 696.315 41.9392 694.545 41.3994C692.796 40.8382 690.907 40.5575 688.878 40.5575C685.273 40.5575 682.078 41.4642 679.293 43.2776C676.508 45.0694 674.328 47.7032 672.752 51.1789C671.176 54.633 670.388 58.8536 670.388 63.8404C670.388 68.9137 671.176 73.1882 672.752 76.6639C674.349 80.118 676.53 82.7302 679.293 84.5004C682.078 86.249 685.262 87.1234 688.846 87.1234C690.832 87.1234 692.688 86.8643 694.415 86.3462C696.164 85.8065 697.729 85.0185 699.111 83.9823C700.514 82.946 701.691 81.6723 702.641 80.1612C703.612 78.65 704.281 76.9229 704.648 74.98L716.759 75.0447C716.306 78.1966 715.324 81.1542 713.812 83.9175C712.323 86.6808 710.369 89.1203 707.951 91.2359C705.533 93.33 702.705 94.9707 699.467 96.1581C696.229 97.3238 692.634 97.9067 688.684 97.9067C682.855 97.9067 677.652 96.5574 673.075 93.8589C668.499 91.1604 664.893 87.2637 662.26 82.1689C659.626 77.074 658.309 70.9646 658.309 63.8404C658.309 56.6947 659.637 50.5853 662.292 45.512C664.947 40.4172 668.563 36.5205 673.14 33.822C677.717 31.1234 682.898 29.7742 688.684 29.7742C692.375 29.7742 695.808 30.2923 698.981 31.3285C702.155 32.3648 704.983 33.8867 707.466 35.8944C709.948 37.8806 711.988 40.32 713.586 43.2129C715.205 46.0841 716.263 49.3655 716.759 53.0571ZM750.558 97V30.6809H762.572V61.1527H763.382L789.255 30.6809H803.925L778.278 60.4403L804.151 97H789.709L769.923 68.5683L762.572 77.2467V97H750.558Z" fill="#007FFF"/>
<path d="M105.266 1.34277C105.986 1.34284 106.886 1.74692 107.953 2.9668C109.015 4.17984 110.101 6.04748 111.173 8.5791C113.312 13.6314 115.267 21.0244 116.921 30.2607C120.225 48.7119 122.276 74.2568 122.276 102.51C122.276 130.763 120.225 156.308 116.921 174.759C115.267 183.995 113.312 191.388 111.173 196.44C110.101 198.972 109.015 200.84 107.953 202.053C106.886 203.273 105.986 203.677 105.266 203.677C104.545 203.677 103.645 203.273 102.577 202.053C101.516 200.84 100.43 198.972 99.3586 196.44C97.22 191.388 95.2633 183.995 93.6096 174.759C90.3061 156.308 88.2551 130.763 88.2551 102.51C88.2551 74.2568 90.3061 48.7119 93.6096 30.2607C95.2633 21.0243 97.22 13.6314 99.3586 8.5791C100.43 6.04755 101.516 4.17982 102.577 2.9668C103.645 1.74658 104.545 1.34277 105.266 1.34277Z" stroke="#007FFF" stroke-width="2.68585"/>
<path d="M178.129 30.7307C178.809 31.4107 179.242 32.5148 179.235 34.2351C179.227 35.9596 178.772 38.1607 177.838 40.8159C175.972 46.1203 172.298 52.9437 167.066 60.8373C156.615 76.6056 140.113 96.4105 120.032 116.492C99.9513 136.573 80.1465 153.075 64.3781 163.525C56.4847 168.757 49.6618 172.431 44.3575 174.297C41.702 175.231 39.5006 175.686 37.776 175.694C36.0557 175.701 34.9516 175.268 34.2715 174.588C33.5917 173.908 33.1591 172.804 33.1667 171.084C33.1743 169.36 33.6288 167.158 34.5629 164.502C36.429 159.198 40.1039 152.376 45.3353 144.482C55.7859 128.714 72.2878 108.909 92.3689 88.8281C112.45 68.747 132.255 52.245 148.023 41.7944C155.917 36.5629 162.739 32.8874 168.044 31.0214C170.699 30.0872 172.901 29.6335 174.625 29.6258C176.345 29.6182 177.449 30.0508 178.129 30.7307Z" stroke="#007FFF" stroke-width="2.68585"/>
<path d="M30.9898 34.2571C34.8278 30.0535 40.5279 27.7656 47.7308 27.3643C54.9423 26.9627 63.567 28.4629 73.0651 31.7421C92.0567 38.299 114.288 51.8828 135.205 70.9791C156.121 90.0754 171.666 110.982 179.92 129.3C184.048 138.462 186.325 146.914 186.58 154.133C186.834 161.342 185.073 167.226 181.235 171.43C177.397 175.634 171.697 177.922 164.494 178.323C157.282 178.725 148.657 177.225 139.159 173.946C120.167 167.389 97.9356 153.805 77.0195 134.709C56.1035 115.613 40.5577 94.7057 32.3039 76.3877C28.176 67.2264 25.8998 58.7728 25.6452 51.5547C25.3909 44.345 27.1519 38.4608 30.9898 34.2571Z" stroke="#007FFF" stroke-width="2.68585"/>
<path d="M37.0758 134.437C27.2989 130.579 19.5245 126.004 14.0153 121.027C8.50458 116.047 5.32706 110.73 4.56829 105.369C3.06493 94.7482 11.1526 83.8125 28.4417 75.0996C45.6292 66.4379 70.0582 60.9572 96.5782 59.8876C123.09 58.8183 149.486 62.2464 170.172 69.4108C180.513 72.9926 188.976 77.3521 195.243 82.1888C201.517 87.031 205.514 92.2907 207.08 97.6598C210.156 108.199 203.76 119.253 187.862 128.393C172.03 137.495 148.488 143.642 122.179 145.445C95.8864 147.247 69.0262 144.559 47.2987 137.977" stroke="#007FFF" stroke-width="2.68585"/>
<path d="M176.746 76.928C181.639 90.2803 182.669 104.741 179.719 118.653" stroke="#007FFF" stroke-width="2.68585"/>
<path d="M170.835 141.459C165.019 151.296 157.05 159.688 147.526 166.004C138.002 172.32 127.171 176.397 115.847 177.928" stroke="#007FFF" stroke-width="2.68585"/>
<path d="M112.322 178.32C94.9387 179.844 77.5634 175.313 63.1393 165.493" stroke="#007FFF" stroke-width="2.68585"/>
<path d="M59.2175 162.634C45.7492 152.141 36.2266 137.4 32.1979 120.808C28.1692 104.217 29.8714 86.7503 37.0278 71.2488" stroke="#007FFF" stroke-width="2.68585"/>
<path d="M37.4145 70.4242C44.5835 55.3741 56.5228 43.1134 71.3771 35.5472" stroke="#007FFF" stroke-width="2.68585"/>
<path d="M98.8303 27.62C103.572 27.1867 108.345 27.2022 113.084 27.6661" stroke="#007FFF" stroke-width="2.68585"/>
<path d="M116.2 28.0366C125.988 29.4066 135.412 32.681 143.94 37.6748" stroke="#007FFF" stroke-width="2.68585"/>
<path d="M149.748 41.4426C153.747 44.3054 157.458 47.5513 160.827 51.1344" stroke="#007FFF" stroke-width="2.68585"/>
<circle cx="121.828" cy="60.8793" r="16.1151" fill="#007FFF"/>
<circle cx="163.907" cy="64.4605" r="9.84813" fill="#007FFF"/>
<circle cx="90.0642" cy="37.1727" r="11.1727" fill="#007FFF"/>
<circle cx="63.6349" cy="119.968" r="9.84813" fill="#007FFF"/>
<circle cx="180.917" cy="131.607" r="9.84813" fill="#007FFF"/>
<circle cx="123.171" cy="114.149" r="12.0863" fill="#007FFF"/>
<circle cx="118.695" cy="164.285" r="5.81935" fill="#007FFF"/>
<circle cx="48.518" cy="137.518" r="5.51803" fill="#007FFF"/>
<circle cx="120.476" cy="145.476" r="4.47642" fill="#007FFF"/>
<circle cx="89.8419" cy="144.385" r="5.61545" fill="#007FFF"/>
<circle cx="88.4764" cy="93.4764" r="5.52358" fill="#007FFF"/>
<circle cx="149.582" cy="85.052" r="5.37171" fill="#007FFF"/>
<circle cx="89.5982" cy="59.9841" r="5.37171" fill="#007FFF"/>
<circle cx="33.4227" cy="74.5" r="9.5" fill="#007FFF"/>
</svg>
