<svg width="596" height="230" viewBox="0 0 596 230" fill="none" xmlns="http://www.w3.org/2000/svg">
<path d="M258.265 144.999V142.952H272.551V144.999H266.561V162H264.254V144.999H258.265ZM288.158 162V142.952H299.654V144.999H290.465V151.435H299.058V153.481H290.465V159.954H299.802V162H288.158ZM331.186 148.905H328.879C328.743 148.241 328.504 147.658 328.163 147.156C327.828 146.654 327.419 146.232 326.935 145.891C326.458 145.544 325.928 145.284 325.345 145.11C324.762 144.937 324.155 144.85 323.522 144.85C322.369 144.85 321.324 145.141 320.388 145.724C319.458 146.307 318.717 147.166 318.165 148.3C317.619 149.435 317.347 150.827 317.347 152.476C317.347 154.126 317.619 155.517 318.165 156.652C318.717 157.787 319.458 158.646 320.388 159.228C321.324 159.811 322.369 160.103 323.522 160.103C324.155 160.103 324.762 160.016 325.345 159.842C325.928 159.669 326.458 159.411 326.935 159.07C327.419 158.723 327.828 158.298 328.163 157.796C328.504 157.288 328.743 156.705 328.879 156.048H331.186C331.012 157.021 330.696 157.892 330.237 158.661C329.778 159.43 329.208 160.084 328.526 160.624C327.844 161.157 327.078 161.563 326.229 161.842C325.385 162.121 324.483 162.26 323.522 162.26C321.898 162.26 320.453 161.864 319.188 161.07C317.923 160.276 316.928 159.148 316.203 157.685C315.477 156.221 315.114 154.485 315.114 152.476C315.114 150.467 315.477 148.731 316.203 147.268C316.928 145.805 317.923 144.676 319.188 143.882C320.453 143.089 321.898 142.692 323.522 142.692C324.483 142.692 325.385 142.831 326.229 143.111C327.078 143.39 327.844 143.799 328.526 144.338C329.208 144.871 329.778 145.522 330.237 146.291C330.696 147.054 331.012 147.925 331.186 148.905ZM346.961 162V142.952H349.267V151.435H359.423V142.952H361.73V162H359.423V153.481H349.267V162H346.961ZM393.499 142.952V162H391.267L380.888 147.045H380.702V162H378.395V142.952H380.627L391.044 157.945H391.23V142.952H393.499ZM426.234 152.476C426.234 154.485 425.871 156.221 425.146 157.685C424.42 159.148 423.425 160.276 422.16 161.07C420.895 161.864 419.451 162.26 417.826 162.26C416.202 162.26 414.757 161.864 413.492 161.07C412.227 160.276 411.232 159.148 410.507 157.685C409.781 156.221 409.418 154.485 409.418 152.476C409.418 150.467 409.781 148.731 410.507 147.268C411.232 145.805 412.227 144.676 413.492 143.882C414.757 143.089 416.202 142.692 417.826 142.692C419.451 142.692 420.895 143.089 422.16 143.882C423.425 144.676 424.42 145.805 425.146 147.268C425.871 148.731 426.234 150.467 426.234 152.476ZM424.002 152.476C424.002 150.827 423.726 149.435 423.174 148.3C422.628 147.166 421.887 146.307 420.951 145.724C420.021 145.141 418.979 144.85 417.826 144.85C416.673 144.85 415.628 145.141 414.692 145.724C413.762 146.307 413.021 147.166 412.469 148.3C411.923 149.435 411.651 150.827 411.651 152.476C411.651 154.126 411.923 155.517 412.469 156.652C413.021 157.787 413.762 158.646 414.692 159.228C415.628 159.811 416.673 160.103 417.826 160.103C418.979 160.103 420.021 159.811 420.951 159.228C421.887 158.646 422.628 157.787 423.174 156.652C423.726 155.517 424.002 154.126 424.002 152.476ZM442.16 162V142.952H444.466V159.954H453.321V162H442.16ZM484.269 152.476C484.269 154.485 483.907 156.221 483.181 157.685C482.456 159.148 481.46 160.276 480.196 161.07C478.931 161.864 477.486 162.26 475.862 162.26C474.237 162.26 472.792 161.864 471.527 161.07C470.263 160.276 469.267 159.148 468.542 157.685C467.817 156.221 467.454 154.485 467.454 152.476C467.454 150.467 467.817 148.731 468.542 147.268C469.267 145.805 470.263 144.676 471.527 143.882C472.792 143.089 474.237 142.692 475.862 142.692C477.486 142.692 478.931 143.089 480.196 143.882C481.46 144.676 482.456 145.805 483.181 147.268C483.907 148.731 484.269 150.467 484.269 152.476ZM482.037 152.476C482.037 150.827 481.761 149.435 481.209 148.3C480.664 147.166 479.923 146.307 478.987 145.724C478.056 145.141 477.015 144.85 475.862 144.85C474.708 144.85 473.663 145.141 472.727 145.724C471.797 146.307 471.056 147.166 470.504 148.3C469.959 149.435 469.686 150.827 469.686 152.476C469.686 154.126 469.959 155.517 470.504 156.652C471.056 157.787 471.797 158.646 472.727 159.228C473.663 159.811 474.708 160.103 475.862 160.103C477.015 160.103 478.056 159.811 478.987 159.228C479.923 158.646 480.664 157.787 481.209 156.652C481.761 155.517 482.037 154.126 482.037 152.476ZM513.216 148.905C513.011 148.279 512.742 147.717 512.407 147.221C512.078 146.719 511.685 146.291 511.226 145.938C510.773 145.584 510.258 145.315 509.682 145.129C509.105 144.943 508.473 144.85 507.784 144.85C506.656 144.85 505.63 145.141 504.706 145.724C503.782 146.307 503.047 147.166 502.502 148.3C501.956 149.435 501.683 150.827 501.683 152.476C501.683 154.126 501.959 155.517 502.511 156.652C503.063 157.787 503.81 158.646 504.753 159.228C505.695 159.811 506.755 160.103 507.933 160.103C509.025 160.103 509.986 159.87 510.816 159.405C511.654 158.934 512.305 158.27 512.77 157.415C513.241 156.553 513.476 155.539 513.476 154.374L514.183 154.522H508.454V152.476H515.709V154.522C515.709 156.091 515.374 157.455 514.704 158.615C514.041 159.774 513.123 160.673 511.951 161.312C510.785 161.944 509.446 162.26 507.933 162.26C506.247 162.26 504.765 161.864 503.488 161.07C502.217 160.276 501.224 159.148 500.511 157.685C499.805 156.221 499.451 154.485 499.451 152.476C499.451 150.97 499.653 149.615 500.056 148.412C500.465 147.203 501.042 146.174 501.786 145.324C502.53 144.475 503.41 143.824 504.427 143.371C505.444 142.918 506.563 142.692 507.784 142.692C508.789 142.692 509.725 142.844 510.593 143.148C511.468 143.445 512.246 143.87 512.928 144.422C513.616 144.968 514.189 145.622 514.648 146.384C515.107 147.141 515.423 147.981 515.597 148.905H513.216ZM534.013 142.952V162H531.707V142.952H534.013ZM550.685 162V142.952H562.181V144.999H552.992V151.435H561.586V153.481H552.992V159.954H562.33V162H550.685ZM588.803 147.714C588.691 146.772 588.238 146.04 587.445 145.519C586.651 144.999 585.678 144.738 584.524 144.738C583.681 144.738 582.943 144.875 582.311 145.147C581.685 145.42 581.195 145.795 580.841 146.273C580.494 146.75 580.32 147.293 580.32 147.9C580.32 148.409 580.441 148.846 580.683 149.212C580.931 149.571 581.247 149.872 581.632 150.114C582.016 150.349 582.419 150.545 582.841 150.7C583.263 150.849 583.65 150.97 584.004 151.063L585.938 151.583C586.434 151.714 586.986 151.893 587.594 152.123C588.207 152.352 588.793 152.665 589.351 153.062C589.916 153.453 590.381 153.955 590.746 154.569C591.112 155.183 591.295 155.936 591.295 156.829C591.295 157.858 591.025 158.788 590.486 159.619C589.953 160.45 589.172 161.11 588.142 161.6C587.119 162.09 585.876 162.335 584.413 162.335C583.049 162.335 581.867 162.115 580.869 161.674C579.877 161.234 579.096 160.62 578.525 159.833C577.961 159.046 577.642 158.131 577.568 157.089H579.948C580.01 157.809 580.252 158.404 580.674 158.875C581.102 159.34 581.641 159.687 582.292 159.917C582.949 160.14 583.656 160.251 584.413 160.251C585.293 160.251 586.084 160.109 586.784 159.824C587.485 159.532 588.04 159.129 588.449 158.615C588.858 158.094 589.063 157.486 589.063 156.792C589.063 156.159 588.886 155.645 588.533 155.248C588.179 154.851 587.714 154.529 587.138 154.281C586.561 154.032 585.938 153.815 585.268 153.629L582.925 152.96C581.437 152.532 580.258 151.921 579.39 151.128C578.522 150.334 578.088 149.295 578.088 148.012C578.088 146.945 578.377 146.015 578.953 145.222C579.536 144.422 580.317 143.802 581.297 143.362C582.283 142.915 583.383 142.692 584.599 142.692C585.826 142.692 586.918 142.912 587.873 143.352C588.827 143.786 589.584 144.382 590.142 145.138C590.706 145.894 591.004 146.753 591.035 147.714H588.803Z" fill="#027AE5"/>
<path d="M268.431 114L257.08 73.7807H264.916L272.162 103.336H272.535L280.273 73.7807H287.402L295.159 103.356H295.512L302.759 73.7807H310.595L299.244 114H292.056L284.004 85.7797H283.69L275.619 114H268.431ZM329.472 114V73.7807H355.63V79.8882H336.758V90.8071H354.275V96.9146H336.758V107.892H355.787V114H329.472ZM376.889 114V73.7807H392.285C395.192 73.7807 397.607 74.2389 399.532 75.1553C401.469 76.0587 402.916 77.2959 403.872 78.867C404.841 80.4381 405.325 82.2186 405.325 84.2086C405.325 85.8452 405.011 87.246 404.382 88.4112C403.754 89.5633 402.91 90.4994 401.849 91.2195C400.789 91.9396 399.604 92.4567 398.295 92.7709V93.1637C399.722 93.2423 401.09 93.6809 402.399 94.4795C403.721 95.265 404.801 96.3779 405.639 97.818C406.477 99.2581 406.896 100.999 406.896 103.042C406.896 105.123 406.392 106.996 405.384 108.658C404.376 110.308 402.857 111.611 400.828 112.566C398.799 113.522 396.246 114 393.169 114H376.889ZM384.175 107.912H392.01C394.655 107.912 396.56 107.408 397.725 106.4C398.903 105.379 399.492 104.07 399.492 102.472C399.492 101.281 399.198 100.207 398.609 99.2516C398.02 98.2828 397.182 97.5234 396.095 96.9736C395.008 96.4106 393.712 96.1291 392.207 96.1291H384.175V107.912ZM384.175 90.8857H391.382C392.639 90.8857 393.771 90.6565 394.779 90.1983C395.787 89.727 396.579 89.0658 397.156 88.2148C397.745 87.3508 398.039 86.3296 398.039 85.1513C398.039 83.5933 397.489 82.3102 396.39 81.3021C395.303 80.294 393.686 79.79 391.539 79.79H384.175V90.8857ZM427.06 114V73.7807H442.142C445.232 73.7807 447.824 74.3174 449.919 75.391C452.027 76.4646 453.617 77.9702 454.691 79.9078C455.778 81.8324 456.321 84.0777 456.321 86.6438C456.321 89.2229 455.771 91.4617 454.671 93.3601C453.585 95.2454 451.981 96.7052 449.86 97.7394C447.739 98.7606 445.134 99.2712 442.044 99.2712H431.302V93.2226H441.062C442.869 93.2226 444.348 92.9739 445.5 92.4764C446.652 91.9658 447.503 91.2261 448.053 90.2572C448.616 89.2753 448.898 88.0708 448.898 86.6438C448.898 85.2167 448.616 83.9991 448.053 82.991C447.49 81.9699 446.633 81.1974 445.481 80.6737C444.328 80.1369 442.843 79.8685 441.023 79.8685H434.346V114H427.06ZM447.837 95.7756L457.794 114H449.664L439.884 95.7756H447.837ZM484.139 73.7807V114H476.853V73.7807H484.139ZM540.28 87.3508H532.935C532.726 86.1463 532.339 85.0793 531.776 84.1497C531.213 83.2071 530.513 82.4084 529.675 81.7538C528.837 81.0992 527.881 80.6083 526.808 80.281C525.747 79.9406 524.602 79.7704 523.371 79.7704C521.185 79.7704 519.247 80.3202 517.558 81.42C515.869 82.5066 514.547 84.1039 513.591 86.2117C512.636 88.3065 512.158 90.866 512.158 93.8903C512.158 96.967 512.636 99.5593 513.591 101.667C514.56 103.762 515.882 105.346 517.558 106.42C519.247 107.48 521.178 108.01 523.352 108.01C524.556 108.01 525.682 107.853 526.729 107.539C527.79 107.212 528.739 106.734 529.577 106.105C530.428 105.477 531.141 104.705 531.718 103.788C532.307 102.872 532.713 101.824 532.935 100.646L540.28 100.685C540.005 102.597 539.409 104.39 538.493 106.066C537.589 107.742 536.405 109.221 534.938 110.504C533.472 111.774 531.757 112.769 529.793 113.489C527.829 114.196 525.649 114.55 523.253 114.55C519.718 114.55 516.563 113.732 513.788 112.095C511.012 110.459 508.826 108.095 507.228 105.006C505.631 101.916 504.833 98.2108 504.833 93.8903C504.833 89.5568 505.638 85.8517 507.248 82.775C508.858 79.6853 511.051 77.3221 513.827 75.6856C516.603 74.0491 519.745 73.2308 523.253 73.2308C525.492 73.2308 527.574 73.545 529.498 74.1734C531.423 74.8019 533.138 75.7249 534.644 76.9424C536.149 78.1469 537.386 79.6263 538.355 81.3807C539.337 83.122 539.979 85.112 540.28 87.3508ZM560.777 114V73.7807H568.063V92.2603H568.554L584.245 73.7807H593.141L577.588 91.8283L593.279 114H584.52L572.521 96.7575L568.063 102.021V114H560.777Z" fill="url(#paint0_linear_2_137)"/>
<path d="M117.578 1.5C118.383 1.5 119.388 1.9506 120.581 3.31348C121.766 4.66841 122.98 6.75525 124.177 9.58301C126.565 15.2263 128.75 23.4841 130.597 33.8008C134.287 54.4101 136.578 82.9424 136.578 114.5C136.578 146.058 134.287 174.59 130.597 195.199C128.75 205.516 126.565 213.774 124.177 219.417C122.98 222.245 121.766 224.332 120.581 225.687C119.388 227.049 118.383 227.5 117.578 227.5C116.773 227.5 115.767 227.049 114.575 225.687C113.389 224.332 112.176 222.245 110.979 219.417C108.591 213.774 106.405 205.516 104.558 195.199C100.868 174.59 98.5779 146.058 98.5779 114.5C98.5779 82.9424 100.868 54.4101 104.558 33.8008C106.405 23.4841 108.591 15.2263 110.979 9.58301C112.176 6.75525 113.389 4.66841 114.575 3.31348C115.767 1.9506 116.773 1.5 117.578 1.5Z" stroke="url(#paint1_linear_2_137)" stroke-width="3"/>
<path d="M198.964 34.3254C199.723 35.085 200.207 36.3179 200.199 38.2394C200.19 40.1656 199.683 42.6248 198.639 45.5908C196.555 51.5155 192.45 59.1358 186.607 67.9524C174.934 85.565 156.501 107.686 134.072 130.116C111.642 152.546 89.5203 170.978 71.9077 182.651C63.0911 188.495 55.4708 192.6 49.5461 194.684C46.5802 195.727 44.1209 196.235 42.1947 196.243C40.2732 196.252 39.0403 195.768 38.2807 195.009C37.5212 194.249 37.0375 193.016 37.0461 191.095C37.0547 189.168 37.5626 186.71 38.606 183.744C40.6903 177.819 44.7945 170.198 50.6378 161.382C62.3108 143.769 80.7431 121.648 103.173 99.2177C125.603 76.7878 147.724 58.3555 165.337 46.6825C174.154 40.8392 181.774 36.7349 187.699 34.6507C190.665 33.6073 193.124 33.0993 195.05 33.0908C196.971 33.0822 198.204 33.5659 198.964 34.3254Z" stroke="url(#paint2_linear_2_137)" stroke-width="3"/>
<path d="M34.6142 38.2646C38.901 33.5692 45.2679 31.0134 53.3134 30.5652C61.3683 30.1166 71.0017 31.7918 81.6108 35.4545C102.824 42.7783 127.656 57.9507 151.019 79.2805C174.381 100.61 191.745 123.963 200.964 144.424C205.575 154.656 208.118 164.098 208.402 172.16C208.686 180.213 206.719 186.786 202.432 191.481C198.145 196.177 191.779 198.732 183.733 199.18C175.678 199.629 166.045 197.953 155.436 194.291C134.223 186.967 109.39 171.794 86.028 150.465C62.6654 129.135 45.3016 105.782 36.0825 85.3215C31.4718 75.0887 28.929 65.6472 28.6447 57.5848C28.3607 49.532 30.3275 42.96 34.6142 38.2646Z" stroke="url(#paint3_linear_2_137)" stroke-width="3"/>
<path d="M41.4123 150.161C30.4919 145.852 21.8081 140.742 15.6546 135.182C9.4993 129.621 5.95012 123.681 5.10261 117.693C3.42341 105.83 12.457 93.6155 31.7684 83.8835C50.9662 74.2087 78.2524 68.087 107.874 66.8922C137.487 65.6979 166.971 69.5269 190.076 77.5293C201.626 81.53 211.08 86.3995 218.079 91.8019C225.087 97.2104 229.551 103.085 231.301 109.082C234.736 120.854 227.592 133.201 209.835 143.41C192.151 153.577 165.855 160.443 136.47 162.456C107.102 164.469 77.0997 161.467 52.8309 154.115" stroke="url(#paint4_linear_2_137)" stroke-width="3"/>
<path d="M197.419 85.9257C202.884 100.84 204.035 116.992 200.739 132.531" stroke="url(#paint5_linear_2_137)" stroke-width="3"/>
<path d="M190.816 158.005C184.32 168.993 175.419 178.366 164.781 185.421C154.143 192.476 142.046 197.029 129.396 198.739" stroke="url(#paint6_linear_2_137)" stroke-width="3"/>
<path d="M125.459 199.177C106.043 200.88 86.6355 195.818 70.5243 184.849" stroke="url(#paint7_linear_2_137)" stroke-width="3"/>
<path d="M66.1438 181.657C51.1002 169.936 40.4638 153.471 35.9639 134.938C31.464 116.406 33.3653 96.8969 41.3587 79.5823" stroke="url(#paint8_linear_2_137)" stroke-width="3"/>
<path d="M44.0676 74.2235C52.427 59.0508 65.2478 46.814 80.7935 39.1704" stroke="url(#paint9_linear_2_137)" stroke-width="3"/>
<path d="M110.39 30.8505C115.687 30.3665 121.017 30.3838 126.311 30.902" stroke="url(#paint10_linear_2_137)" stroke-width="3"/>
<path d="M129.791 31.3158C140.724 32.8461 151.25 36.5035 160.776 42.0814" stroke="url(#paint11_linear_2_137)" stroke-width="3"/>
<path d="M167.263 46.2898C171.73 49.4875 175.874 53.1131 179.638 57.1153" stroke="url(#paint12_linear_2_137)" stroke-width="3"/>
<circle cx="136.078" cy="68" r="18" fill="url(#paint13_linear_2_137)"/>
<circle cx="183.078" cy="72" r="11" fill="url(#paint14_linear_2_137)"/>
<circle cx="102.078" cy="43" r="11" fill="url(#paint15_linear_2_137)"/>
<circle cx="71.0779" cy="134" r="11" fill="url(#paint16_linear_2_137)"/>
<circle cx="202.078" cy="147" r="11" fill="url(#paint17_linear_2_137)"/>
<circle cx="137.578" cy="127.5" r="13.5" fill="url(#paint18_linear_2_137)"/>
<circle cx="132.578" cy="183.5" r="6.5" fill="url(#paint19_linear_2_137)"/>
<circle cx="53.5779" cy="155.5" r="6.5" fill="url(#paint20_linear_2_137)"/>
<circle cx="136.078" cy="162" r="5" fill="url(#paint21_linear_2_137)"/>
<circle cx="100.078" cy="161" r="6" fill="url(#paint22_linear_2_137)"/>
<circle cx="99.0779" cy="101" r="5" fill="url(#paint23_linear_2_137)"/>
<circle cx="167.078" cy="95" r="6" fill="url(#paint24_linear_2_137)"/>
<circle cx="100.078" cy="67" r="6" fill="url(#paint25_linear_2_137)"/>
<circle cx="35.0779" cy="81" r="6" fill="url(#paint26_linear_2_137)"/>
<defs>
<linearGradient id="paint0_linear_2_137" x1="425.5" y1="74" x2="425.5" y2="114" gradientUnits="userSpaceOnUse">
<stop stop-color="#19FFFF"/>
<stop offset="1" stop-color="#0F9999"/>
</linearGradient>
<linearGradient id="paint1_linear_2_137" x1="117.578" y1="0" x2="117.578" y2="229" gradientUnits="userSpaceOnUse">
<stop stop-color="#19FFFF"/>
<stop offset="1" stop-color="#027AE5"/>
</linearGradient>
<linearGradient id="paint2_linear_2_137" x1="200.025" y1="33.2648" x2="37.2199" y2="196.069" gradientUnits="userSpaceOnUse">
<stop stop-color="#19FFFF"/>
<stop offset="1" stop-color="#027AE5"/>
</linearGradient>
<linearGradient id="paint3_linear_2_137" x1="33.5067" y1="37.2529" x2="203.54" y2="192.493" gradientUnits="userSpaceOnUse">
<stop stop-color="#19FFFF"/>
<stop offset="1" stop-color="#027AE5"/>
</linearGradient>
<linearGradient id="paint4_linear_2_137" x1="3.4031" y1="114.873" x2="233.644" y2="114.873" gradientUnits="userSpaceOnUse">
<stop stop-color="#19FFFF"/>
<stop offset="1" stop-color="#027AE5"/>
</linearGradient>
<linearGradient id="paint5_linear_2_137" x1="118.078" y1="29" x2="118.078" y2="201" gradientUnits="userSpaceOnUse">
<stop stop-color="#19FFFF"/>
<stop offset="1" stop-color="#027AE5"/>
</linearGradient>
<linearGradient id="paint6_linear_2_137" x1="118.078" y1="29" x2="118.078" y2="201" gradientUnits="userSpaceOnUse">
<stop stop-color="#19FFFF"/>
<stop offset="1" stop-color="#027AE5"/>
</linearGradient>
<linearGradient id="paint7_linear_2_137" x1="118.078" y1="29" x2="118.078" y2="201" gradientUnits="userSpaceOnUse">
<stop stop-color="#19FFFF"/>
<stop offset="1" stop-color="#027AE5"/>
</linearGradient>
<linearGradient id="paint8_linear_2_137" x1="118.078" y1="29" x2="118.078" y2="201" gradientUnits="userSpaceOnUse">
<stop stop-color="#19FFFF"/>
<stop offset="1" stop-color="#027AE5"/>
</linearGradient>
<linearGradient id="paint9_linear_2_137" x1="118.078" y1="29" x2="118.078" y2="201" gradientUnits="userSpaceOnUse">
<stop stop-color="#19FFFF"/>
<stop offset="1" stop-color="#027AE5"/>
</linearGradient>
<linearGradient id="paint10_linear_2_137" x1="118.078" y1="29" x2="118.078" y2="201" gradientUnits="userSpaceOnUse">
<stop stop-color="#19FFFF"/>
<stop offset="1" stop-color="#027AE5"/>
</linearGradient>
<linearGradient id="paint11_linear_2_137" x1="118.078" y1="29" x2="118.078" y2="201" gradientUnits="userSpaceOnUse">
<stop stop-color="#19FFFF"/>
<stop offset="1" stop-color="#027AE5"/>
</linearGradient>
<linearGradient id="paint12_linear_2_137" x1="118.078" y1="29" x2="118.078" y2="201" gradientUnits="userSpaceOnUse">
<stop stop-color="#19FFFF"/>
<stop offset="1" stop-color="#027AE5"/>
</linearGradient>
<linearGradient id="paint13_linear_2_137" x1="136.078" y1="50" x2="136.078" y2="86" gradientUnits="userSpaceOnUse">
<stop stop-color="#19FFFF"/>
<stop offset="1" stop-color="#027AE5"/>
</linearGradient>
<linearGradient id="paint14_linear_2_137" x1="183.078" y1="61" x2="183.078" y2="83" gradientUnits="userSpaceOnUse">
<stop stop-color="#19FFFF"/>
<stop offset="1" stop-color="#027AE5"/>
</linearGradient>
<linearGradient id="paint15_linear_2_137" x1="102.078" y1="32" x2="102.078" y2="54" gradientUnits="userSpaceOnUse">
<stop stop-color="#19FFFF"/>
<stop offset="1" stop-color="#027AE5"/>
</linearGradient>
<linearGradient id="paint16_linear_2_137" x1="71.0779" y1="123" x2="71.0779" y2="145" gradientUnits="userSpaceOnUse">
<stop stop-color="#19FFFF"/>
<stop offset="1" stop-color="#027AE5"/>
</linearGradient>
<linearGradient id="paint17_linear_2_137" x1="202.078" y1="136" x2="202.078" y2="158" gradientUnits="userSpaceOnUse">
<stop stop-color="#19FFFF"/>
<stop offset="1" stop-color="#027AE5"/>
</linearGradient>
<linearGradient id="paint18_linear_2_137" x1="137.578" y1="114" x2="137.578" y2="141" gradientUnits="userSpaceOnUse">
<stop stop-color="#19FFFF"/>
<stop offset="1" stop-color="#027AE5"/>
</linearGradient>
<linearGradient id="paint19_linear_2_137" x1="132.578" y1="177" x2="132.578" y2="190" gradientUnits="userSpaceOnUse">
<stop stop-color="#19FFFF"/>
<stop offset="1" stop-color="#027AE5"/>
</linearGradient>
<linearGradient id="paint20_linear_2_137" x1="53.5779" y1="149" x2="53.5779" y2="162" gradientUnits="userSpaceOnUse">
<stop stop-color="#19FFFF"/>
<stop offset="1" stop-color="#027AE5"/>
</linearGradient>
<linearGradient id="paint21_linear_2_137" x1="136.078" y1="157" x2="136.078" y2="167" gradientUnits="userSpaceOnUse">
<stop stop-color="#19FFFF"/>
<stop offset="1" stop-color="#027AE5"/>
</linearGradient>
<linearGradient id="paint22_linear_2_137" x1="100.078" y1="155" x2="100.078" y2="167" gradientUnits="userSpaceOnUse">
<stop stop-color="#19FFFF"/>
<stop offset="1" stop-color="#027AE5"/>
</linearGradient>
<linearGradient id="paint23_linear_2_137" x1="99.0779" y1="96" x2="99.0779" y2="106" gradientUnits="userSpaceOnUse">
<stop stop-color="#19FFFF"/>
<stop offset="1" stop-color="#027AE5"/>
</linearGradient>
<linearGradient id="paint24_linear_2_137" x1="167.078" y1="89" x2="167.078" y2="101" gradientUnits="userSpaceOnUse">
<stop stop-color="#19FFFF"/>
<stop offset="1" stop-color="#027AE5"/>
</linearGradient>
<linearGradient id="paint25_linear_2_137" x1="100.078" y1="61" x2="100.078" y2="73" gradientUnits="userSpaceOnUse">
<stop stop-color="#19FFFF"/>
<stop offset="1" stop-color="#027AE5"/>
</linearGradient>
<linearGradient id="paint26_linear_2_137" x1="35.0779" y1="75" x2="35.0779" y2="87" gradientUnits="userSpaceOnUse">
<stop stop-color="#19FFFF"/>
<stop offset="1" stop-color="#027AE5"/>
</linearGradient>
</defs>
</svg>
