<svg width="238" height="230" viewBox="0 0 238 230" fill="none" xmlns="http://www.w3.org/2000/svg">
<path d="M117.578 1.5C118.383 1.5 119.388 1.9506 120.581 3.31348C121.766 4.66841 122.98 6.75525 124.177 9.58301C126.565 15.2263 128.75 23.4841 130.597 33.8008C134.287 54.4101 136.578 82.9424 136.578 114.5C136.578 146.058 134.287 174.59 130.597 195.199C128.75 205.516 126.565 213.774 124.177 219.417C122.98 222.245 121.766 224.332 120.581 225.687C119.388 227.049 118.383 227.5 117.578 227.5C116.773 227.5 115.767 227.049 114.575 225.687C113.389 224.332 112.176 222.245 110.979 219.417C108.591 213.774 106.405 205.516 104.558 195.199C100.868 174.59 98.5779 146.058 98.5779 114.5C98.5779 82.9424 100.868 54.4101 104.558 33.8008C106.405 23.4841 108.591 15.2263 110.979 9.58301C112.176 6.75525 113.389 4.66841 114.575 3.31348C115.767 1.9506 116.773 1.5 117.578 1.5Z" stroke="url(#paint0_linear_1_83)" stroke-width="3"/>
<path d="M198.964 34.3254C199.723 35.085 200.207 36.3179 200.199 38.2394C200.19 40.1656 199.683 42.6248 198.639 45.5908C196.555 51.5155 192.45 59.1358 186.607 67.9524C174.934 85.565 156.501 107.686 134.072 130.116C111.642 152.546 89.5203 170.978 71.9077 182.651C63.0911 188.495 55.4708 192.6 49.5461 194.684C46.5802 195.727 44.1209 196.235 42.1947 196.243C40.2732 196.252 39.0403 195.768 38.2807 195.009C37.5212 194.249 37.0375 193.016 37.0461 191.095C37.0547 189.168 37.5626 186.71 38.606 183.744C40.6903 177.819 44.7945 170.198 50.6378 161.382C62.3108 143.769 80.7431 121.648 103.173 99.2177C125.603 76.7878 147.724 58.3555 165.337 46.6825C174.154 40.8392 181.774 36.7349 187.699 34.6507C190.665 33.6073 193.124 33.0993 195.05 33.0908C196.971 33.0822 198.204 33.5659 198.964 34.3254Z" stroke="url(#paint1_linear_1_83)" stroke-width="3"/>
<path d="M34.6142 38.2646C38.901 33.5692 45.2679 31.0134 53.3134 30.5652C61.3683 30.1166 71.0017 31.7918 81.6108 35.4545C102.824 42.7783 127.656 57.9507 151.019 79.2805C174.381 100.61 191.745 123.963 200.964 144.424C205.575 154.656 208.118 164.098 208.402 172.16C208.686 180.213 206.719 186.786 202.432 191.481C198.145 196.177 191.779 198.732 183.733 199.18C175.678 199.629 166.045 197.953 155.436 194.291C134.223 186.967 109.39 171.794 86.028 150.465C62.6654 129.135 45.3016 105.782 36.0825 85.3215C31.4718 75.0887 28.929 65.6472 28.6447 57.5848C28.3607 49.532 30.3275 42.96 34.6142 38.2646Z" stroke="url(#paint2_linear_1_83)" stroke-width="3"/>
<path d="M41.4123 150.161C30.4919 145.852 21.8081 140.742 15.6546 135.182C9.4993 129.621 5.95012 123.681 5.10261 117.693C3.42341 105.83 12.457 93.6155 31.7684 83.8835C50.9662 74.2087 78.2524 68.087 107.874 66.8922C137.487 65.6979 166.971 69.5269 190.076 77.5293C201.626 81.53 211.08 86.3995 218.079 91.8019C225.087 97.2104 229.551 103.085 231.301 109.082C234.736 120.854 227.592 133.201 209.835 143.41C192.151 153.577 165.855 160.443 136.47 162.456C107.102 164.469 77.0997 161.467 52.8309 154.115" stroke="url(#paint3_linear_1_83)" stroke-width="3"/>
<path d="M197.419 85.9257C202.884 100.84 204.035 116.992 200.739 132.531" stroke="url(#paint4_linear_1_83)" stroke-width="3"/>
<path d="M190.816 158.005C184.32 168.993 175.419 178.366 164.781 185.421C154.143 192.476 142.046 197.029 129.396 198.739" stroke="url(#paint5_linear_1_83)" stroke-width="3"/>
<path d="M125.459 199.177C106.043 200.88 86.6355 195.818 70.5243 184.849" stroke="url(#paint6_linear_1_83)" stroke-width="3"/>
<path d="M66.1438 181.657C51.1002 169.936 40.4638 153.471 35.9639 134.938C31.464 116.406 33.3653 96.8969 41.3587 79.5823" stroke="url(#paint7_linear_1_83)" stroke-width="3"/>
<path d="M44.0676 74.2235C52.427 59.0508 65.2478 46.814 80.7935 39.1704" stroke="url(#paint8_linear_1_83)" stroke-width="3"/>
<path d="M110.39 30.8505C115.687 30.3665 121.017 30.3838 126.311 30.902" stroke="url(#paint9_linear_1_83)" stroke-width="3"/>
<path d="M129.791 31.3158C140.724 32.8461 151.25 36.5035 160.776 42.0814" stroke="url(#paint10_linear_1_83)" stroke-width="3"/>
<path d="M167.263 46.2898C171.73 49.4875 175.874 53.1131 179.638 57.1153" stroke="url(#paint11_linear_1_83)" stroke-width="3"/>
<circle cx="136.078" cy="68" r="18" fill="url(#paint12_linear_1_83)"/>
<circle cx="183.078" cy="72" r="11" fill="url(#paint13_linear_1_83)"/>
<circle cx="102.078" cy="43" r="11" fill="url(#paint14_linear_1_83)"/>
<circle cx="71.0779" cy="134" r="11" fill="url(#paint15_linear_1_83)"/>
<circle cx="202.078" cy="147" r="11" fill="url(#paint16_linear_1_83)"/>
<circle cx="137.578" cy="127.5" r="13.5" fill="url(#paint17_linear_1_83)"/>
<circle cx="132.578" cy="183.5" r="6.5" fill="url(#paint18_linear_1_83)"/>
<circle cx="53.5779" cy="155.5" r="6.5" fill="url(#paint19_linear_1_83)"/>
<circle cx="136.078" cy="162" r="5" fill="url(#paint20_linear_1_83)"/>
<circle cx="100.078" cy="161" r="6" fill="url(#paint21_linear_1_83)"/>
<circle cx="99.0779" cy="101" r="5" fill="url(#paint22_linear_1_83)"/>
<circle cx="167.078" cy="95" r="6" fill="url(#paint23_linear_1_83)"/>
<circle cx="100.078" cy="67" r="6" fill="url(#paint24_linear_1_83)"/>
<circle cx="35.0779" cy="81" r="6" fill="url(#paint25_linear_1_83)"/>
<defs>
<linearGradient id="paint0_linear_1_83" x1="117.578" y1="0" x2="117.578" y2="229" gradientUnits="userSpaceOnUse">
<stop stop-color="#19FFFF"/>
<stop offset="1" stop-color="#027AE5"/>
</linearGradient>
<linearGradient id="paint1_linear_1_83" x1="200.025" y1="33.2648" x2="37.2199" y2="196.069" gradientUnits="userSpaceOnUse">
<stop stop-color="#19FFFF"/>
<stop offset="1" stop-color="#027AE5"/>
</linearGradient>
<linearGradient id="paint2_linear_1_83" x1="33.5067" y1="37.2529" x2="203.54" y2="192.493" gradientUnits="userSpaceOnUse">
<stop stop-color="#19FFFF"/>
<stop offset="1" stop-color="#027AE5"/>
</linearGradient>
<linearGradient id="paint3_linear_1_83" x1="3.4031" y1="114.873" x2="233.644" y2="114.873" gradientUnits="userSpaceOnUse">
<stop stop-color="#19FFFF"/>
<stop offset="1" stop-color="#027AE5"/>
</linearGradient>
<linearGradient id="paint4_linear_1_83" x1="118.078" y1="29" x2="118.078" y2="201" gradientUnits="userSpaceOnUse">
<stop stop-color="#19FFFF"/>
<stop offset="1" stop-color="#027AE5"/>
</linearGradient>
<linearGradient id="paint5_linear_1_83" x1="118.078" y1="29" x2="118.078" y2="201" gradientUnits="userSpaceOnUse">
<stop stop-color="#19FFFF"/>
<stop offset="1" stop-color="#027AE5"/>
</linearGradient>
<linearGradient id="paint6_linear_1_83" x1="118.078" y1="29" x2="118.078" y2="201" gradientUnits="userSpaceOnUse">
<stop stop-color="#19FFFF"/>
<stop offset="1" stop-color="#027AE5"/>
</linearGradient>
<linearGradient id="paint7_linear_1_83" x1="118.078" y1="29" x2="118.078" y2="201" gradientUnits="userSpaceOnUse">
<stop stop-color="#19FFFF"/>
<stop offset="1" stop-color="#027AE5"/>
</linearGradient>
<linearGradient id="paint8_linear_1_83" x1="118.078" y1="29" x2="118.078" y2="201" gradientUnits="userSpaceOnUse">
<stop stop-color="#19FFFF"/>
<stop offset="1" stop-color="#027AE5"/>
</linearGradient>
<linearGradient id="paint9_linear_1_83" x1="118.078" y1="29" x2="118.078" y2="201" gradientUnits="userSpaceOnUse">
<stop stop-color="#19FFFF"/>
<stop offset="1" stop-color="#027AE5"/>
</linearGradient>
<linearGradient id="paint10_linear_1_83" x1="118.078" y1="29" x2="118.078" y2="201" gradientUnits="userSpaceOnUse">
<stop stop-color="#19FFFF"/>
<stop offset="1" stop-color="#027AE5"/>
</linearGradient>
<linearGradient id="paint11_linear_1_83" x1="118.078" y1="29" x2="118.078" y2="201" gradientUnits="userSpaceOnUse">
<stop stop-color="#19FFFF"/>
<stop offset="1" stop-color="#027AE5"/>
</linearGradient>
<linearGradient id="paint12_linear_1_83" x1="136.078" y1="50" x2="136.078" y2="86" gradientUnits="userSpaceOnUse">
<stop stop-color="#19FFFF"/>
<stop offset="1" stop-color="#027AE5"/>
</linearGradient>
<linearGradient id="paint13_linear_1_83" x1="183.078" y1="61" x2="183.078" y2="83" gradientUnits="userSpaceOnUse">
<stop stop-color="#19FFFF"/>
<stop offset="1" stop-color="#027AE5"/>
</linearGradient>
<linearGradient id="paint14_linear_1_83" x1="102.078" y1="32" x2="102.078" y2="54" gradientUnits="userSpaceOnUse">
<stop stop-color="#19FFFF"/>
<stop offset="1" stop-color="#027AE5"/>
</linearGradient>
<linearGradient id="paint15_linear_1_83" x1="71.0779" y1="123" x2="71.0779" y2="145" gradientUnits="userSpaceOnUse">
<stop stop-color="#19FFFF"/>
<stop offset="1" stop-color="#027AE5"/>
</linearGradient>
<linearGradient id="paint16_linear_1_83" x1="202.078" y1="136" x2="202.078" y2="158" gradientUnits="userSpaceOnUse">
<stop stop-color="#19FFFF"/>
<stop offset="1" stop-color="#027AE5"/>
</linearGradient>
<linearGradient id="paint17_linear_1_83" x1="137.578" y1="114" x2="137.578" y2="141" gradientUnits="userSpaceOnUse">
<stop stop-color="#19FFFF"/>
<stop offset="1" stop-color="#027AE5"/>
</linearGradient>
<linearGradient id="paint18_linear_1_83" x1="132.578" y1="177" x2="132.578" y2="190" gradientUnits="userSpaceOnUse">
<stop stop-color="#19FFFF"/>
<stop offset="1" stop-color="#027AE5"/>
</linearGradient>
<linearGradient id="paint19_linear_1_83" x1="53.5779" y1="149" x2="53.5779" y2="162" gradientUnits="userSpaceOnUse">
<stop stop-color="#19FFFF"/>
<stop offset="1" stop-color="#027AE5"/>
</linearGradient>
<linearGradient id="paint20_linear_1_83" x1="136.078" y1="157" x2="136.078" y2="167" gradientUnits="userSpaceOnUse">
<stop stop-color="#19FFFF"/>
<stop offset="1" stop-color="#027AE5"/>
</linearGradient>
<linearGradient id="paint21_linear_1_83" x1="100.078" y1="155" x2="100.078" y2="167" gradientUnits="userSpaceOnUse">
<stop stop-color="#19FFFF"/>
<stop offset="1" stop-color="#027AE5"/>
</linearGradient>
<linearGradient id="paint22_linear_1_83" x1="99.0779" y1="96" x2="99.0779" y2="106" gradientUnits="userSpaceOnUse">
<stop stop-color="#19FFFF"/>
<stop offset="1" stop-color="#027AE5"/>
</linearGradient>
<linearGradient id="paint23_linear_1_83" x1="167.078" y1="89" x2="167.078" y2="101" gradientUnits="userSpaceOnUse">
<stop stop-color="#19FFFF"/>
<stop offset="1" stop-color="#027AE5"/>
</linearGradient>
<linearGradient id="paint24_linear_1_83" x1="100.078" y1="61" x2="100.078" y2="73" gradientUnits="userSpaceOnUse">
<stop stop-color="#19FFFF"/>
<stop offset="1" stop-color="#027AE5"/>
</linearGradient>
<linearGradient id="paint25_linear_1_83" x1="35.0779" y1="75" x2="35.0779" y2="87" gradientUnits="userSpaceOnUse">
<stop stop-color="#19FFFF"/>
<stop offset="1" stop-color="#027AE5"/>
</linearGradient>
</defs>
</svg>
