<?xml version="1.0" encoding="UTF-8"?>
<svg id="Layer_2" data-name="Layer 2" xmlns="http://www.w3.org/2000/svg" viewBox="0 0 80 80">
  <defs>
    <style>
      .cls-1 {
        fill: #4a9ed3;
      }
    </style>
  </defs>
  <path class="cls-1" d="m23.4,28.67c8.18,8.18,16.34,16.34,24.53,24.53-1.47.7-2.98,1.42-4.5,2.13-5.46,2.59-10.92,5.17-16.37,7.78-.56.27-.87.21-1.31-.24-4.01-4.05-8.05-8.08-12.09-12.1-.35-.35-.48-.61-.24-1.11,3.3-6.92,6.58-13.85,9.86-20.78.03-.07.08-.14.12-.21Z"/>
  <path class="cls-1" d="m66.11-.01c3.29,0,6.57,0,9.86,0,2.68,0,4.02,1.33,4.02,3.99,0,4.32,0,8.64,0,12.95,0,2.58-1.4,3.96-3.99,3.96-6.63,0-13.25,0-19.88,0-2.58,0-3.97-1.39-3.98-3.97,0-4.32,0-8.64,0-12.95,0-2.65,1.35-3.98,4.03-3.99,3.31,0,6.63,0,9.94,0Zm-5.35,10.54h.09c0,.79-.03,1.58,0,2.37.11,2.43,2.46,4.09,4.64,3.16,1.89-.8,3.75-1.72,5.53-2.74,2.09-1.21,2.25-4.36.22-5.61-1.87-1.16-3.9-2.13-5.96-2.93-1.88-.73-3.92.6-4.27,2.61-.18,1.03-.17,2.1-.25,3.15Z"/>
  <path class="cls-1" d="m77.81,58.67c-.23.45-.38.85-.62,1.19-.86,1.22-.38,2.44,1.09,2.71,1.28.24,1.68.68,1.7,1.96.02,1.09.02,2.17,0,3.26-.03,1.08-.49,1.57-1.54,1.76-1.7.31-2.15,1.45-1.13,2.86.54.74.51,1.54-.13,2.21-.85.88-1.71,1.75-2.59,2.59-.66.63-1.46.64-2.21.09-1.35-.99-2.54-.53-2.83,1.1-.2,1.11-.68,1.56-1.8,1.59-1.11.03-2.23.03-3.34,0-1.13-.03-1.62-.47-1.82-1.57-.3-1.65-1.48-2.12-2.82-1.14-.79.58-1.57.56-2.27-.11-.86-.83-1.71-1.68-2.53-2.54-.67-.7-.69-1.48-.11-2.27.99-1.33.51-2.52-1.14-2.82-1.07-.19-1.53-.67-1.56-1.74-.03-1.17-.03-2.34,0-3.5.03-1.02.49-1.51,1.5-1.71,1.69-.33,2.15-1.47,1.15-2.88-.51-.73-.51-1.52.09-2.15.86-.91,1.74-1.79,2.65-2.65.66-.63,1.45-.63,2.21-.07,1.34.99,2.52.52,2.82-1.13.2-1.1.69-1.55,1.82-1.57,1.11-.03,2.23-.03,3.34,0,1.12.03,1.61.47,1.81,1.58.29,1.64,1.48,2.1,2.83,1.11.78-.58,1.57-.55,2.27.13.84.81,1.68,1.63,2.47,2.48.29.32.45.76.7,1.2Zm-4.82,7.36c-.01-3.79-3.09-6.87-6.89-6.89-3.86-.02-7.01,3.13-6.97,6.98.04,3.82,3.1,6.87,6.9,6.89,3.87.01,6.98-3.1,6.97-6.98Z"/>
  <path class="cls-1" d="m.2,2.32c2.53,1.9,4.96,3.73,7.39,5.55,1.7,1.27,3.39,2.54,5.1,3.78.98.71,1.43.73,2.42,0,3.88-2.88,7.74-5.78,11.61-8.67.26-.19.52-.38.91-.67.06.37.13.61.13.86.02,4.78.07,9.56.02,14.34-.02,2-1.54,3.38-3.54,3.39-6.9.02-13.8.02-20.7,0-1.97,0-3.51-1.37-3.53-3.31-.05-4.89.02-9.78.05-14.67,0-.15.07-.31.14-.59Z"/>
  <path class="cls-1" d="m23.23,65.43c-2.1,2.16-4.15,4.44-6.39,6.54-1.77,1.66-4.75,1.59-6.57-.07-1.92-1.76-3.77-3.61-5.53-5.52-1.72-1.86-1.81-4.75-.09-6.63,2.06-2.26,4.34-4.32,6.47-6.41,4.04,4.03,8.1,8.09,12.12,12.11Z"/>
  <path class="cls-1" d="m24.62.19c-1.83,1.39-3.67,2.77-5.5,4.16-1.56,1.18-3.12,2.35-4.68,3.53-.28.21-.51.44-.91.13C10.15,5.46,6.76,2.92,3.37.38c-.11-.08-.23-.13-.25-.36h21.43c.02.06.04.11.07.17Z"/>
  <path class="cls-1" d="m19.77,74.13c1.68-1.67,3.3-3.26,4.74-4.7,1.7,1.59,3.57,3.13,5.18,4.9,1.18,1.29.8,3.38-.5,4.54-1.35,1.2-3.36,1.22-4.66-.02-1.6-1.54-3.16-3.13-4.76-4.72Z"/>
  <path class="cls-1" d="m34.12,34.08c2.45-.53,4.69.02,6.51,1.83,1.83,1.83,2.45,4.06,1.88,6.57-2.8-2.8-5.56-5.57-8.39-8.41Z"/>
  <path class="cls-1" d="m51.2,27.14c-.27.57-.37,1.03-.65,1.32-1.25,1.31-2.52,2.62-3.86,3.84-1.06.96-2.67.38-2.83-1.01-.06-.49.17-1.16.5-1.53,1.14-1.27,2.38-2.44,3.6-3.64.58-.57,1.32-.79,2-.36.5.31.82.9,1.23,1.37Z"/>
  <path class="cls-1" d="m39.98,25.23c0,.84.01,1.68,0,2.52-.02,1.05-.71,1.78-1.69,1.81-.99.02-1.74-.64-1.77-1.71-.05-1.76-.05-3.52,0-5.28.03-1.06.8-1.72,1.8-1.68.98.04,1.64.76,1.66,1.83.01.84,0,1.68,0,2.52Z"/>
  <path class="cls-1" d="m51.28,39.99c-.87,0-1.74.02-2.6,0-1-.02-1.71-.72-1.73-1.67-.03-.97.6-1.74,1.62-1.77,1.81-.06,3.63-.06,5.45,0,1.01.03,1.65.81,1.62,1.77-.03.94-.75,1.65-1.74,1.67-.87.02-1.73,0-2.6,0Z"/>
  <path class="cls-1" d="m64.34,8.07c.19.07.34.12.48.18,1.4.7,2.79,1.4,4.33,2.18-1.66.84-3.19,1.61-4.81,2.42v-4.79Z"/>
  <path class="cls-1" d="m66.11,69.56c-1.96.03-3.52-1.52-3.52-3.48,0-1.93,1.51-3.45,3.44-3.48,1.96-.03,3.52,1.52,3.52,3.48,0,1.93-1.51,3.45-3.44,3.48Z"/>
</svg>